# xmcd
#
# Track frame offsets: 
#        151
#        19300
#        39625
#        63326
#        87159
#        105118
#        122481
#        144402
#
# Disc length: 2231 seconds
#
# Revision: 0
# Processed by: cddbd v1.5.2PL0 Copyright (c) Steve Scherf et al.
# Submitted via: ExactAudioCopy v1.0b1
#
DISCID=5d08b508
DTITLE=Cheley Tackett - Here
DYEAR=2005
DGENRE=Country
TTITLE0=Homegrown
TTITLE1=Play the One I Like
TTITLE2=Sky Is Falling
TTITLE3=Jerusalem Ridge
TTITLE4=Good For Me
TTITLE5=Fried Chicken
TTITLE6=Up Here
TTITLE7=Where Is There
EXTD=
EXTT0=
EXTT1=
EXTT2=
EXTT3=
EXTT4=
EXTT5=
EXTT6=
EXTT7=
PLAYORDER=
